<?xml version="1.0" standalone="no"?>
<!DOCTYPE svg PUBLIC "-//W3C//DTD SVG 20010904//EN"
 "http://www.w3.org/TR/2001/REC-SVG-20010904/DTD/svg10.dtd">
<svg version="1.0" xmlns="http://www.w3.org/2000/svg"
 width="1080.000000pt" height="1080.000000pt" viewBox="0 0 1080.000000 1080.000000"
 preserveAspectRatio="xMidYMid meet">

<g transform="translate(0.000000,1080.000000) scale(0.100000,-0.100000)"
fill="#000000" stroke="none">
<path d="M7430 5909 c-219 -32 -384 -195 -451 -446 -46 -170 -21 -425 58 -583
50 -100 153 -205 243 -248 194 -92 505 -62 672 65 83 64 175 219 209 353 19
77 17 304 -4 399 -35 159 -155 330 -270 384 -73 34 -176 64 -270 76 -87 12
-107 12 -187 0z m272 -211 c127 -54 223 -251 222 -458 0 -113 -14 -180 -60
-276 -61 -129 -159 -194 -293 -194 -127 1 -239 68 -290 173 -46 93 -61 167
-61 292 0 169 36 302 103 381 30 35 126 89 183 103 52 13 138 4 196 -21z"/>
<path d="M2583 5903 c-28 -6 -73 -58 -73 -86 0 -164 -68 -648 -117 -829 -25
-95 -54 -158 -72 -158 -9 0 -33 91 -51 195 -23 138 -89 606 -95 675 -9 102
-20 134 -61 170 -43 37 -91 40 -130 7 -25 -22 -27 -30 -40 -177 -24 -272 -91
-621 -149 -777 -32 -86 -50 -106 -64 -71 -18 48 -57 417 -82 768 -6 96 -18
190 -25 207 -36 91 -189 97 -225 10 -10 -23 -10 -52 -1 -131 7 -55 19 -177 27
-271 42 -466 98 -698 196 -810 58 -65 143 -69 204 -7 66 66 158 268 200 441
19 79 28 79 39 -4 14 -100 57 -258 89 -329 77 -166 181 -198 296 -91 153 143
261 505 300 1006 7 83 7 137 0 161 -9 36 -68 98 -92 98 -7 0 -21 2 -32 4 -11
2 -30 2 -42 -1z"/>
<path d="M2929 5895 c-26 -8 -49 -21 -52 -27 -2 -7 0 -49 4 -93 21 -189 32
-579 20 -730 -16 -221 -15 -395 4 -422 21 -30 70 -42 139 -32 106 14 98 -39
93 599 -4 595 -9 668 -51 695 -34 21 -106 26 -157 10z"/>
<path d="M4630 5898 c-64 -18 -63 -15 -51 -228 6 -105 11 -384 11 -618 -1
-392 1 -428 16 -439 42 -31 169 -29 204 2 19 17 20 31 20 282 l0 263 260 2
c143 0 266 1 273 2 9 1 11 -53 8 -249 -2 -138 0 -261 3 -273 11 -32 57 -52
120 -52 66 0 105 16 111 44 11 54 15 761 5 941 -12 231 -20 283 -48 306 -42
34 -147 32 -195 -4 -17 -11 -17 -22 -8 -117 5 -58 11 -170 13 -250 l3 -145
-270 0 -270 0 -7 180 c-6 175 -20 291 -39 326 -5 10 -31 22 -59 28 -58 12 -53
12 -100 -1z"/>
<path d="M9136 5895 c-45 -16 -58 -31 -52 -60 16 -72 37 -469 34 -659 l-3
-219 -202 359 c-260 460 -304 534 -337 559 -41 30 -172 35 -206 7 l-25 -20 -3
-607 c-2 -529 -1 -610 12 -630 21 -32 109 -50 165 -35 72 19 72 14 60 380 -6
179 -9 372 -7 428 l3 104 44 -79 c294 -522 443 -761 504 -807 21 -15 47 -22
102 -24 69 -4 76 -2 100 22 l27 27 -5 542 c-6 675 -9 696 -97 718 -41 11 -73
9 -114 -6z"/>
<path d="M6330 5884 c-217 -56 -416 -243 -500 -471 -29 -76 -34 -104 -38 -209
-3 -95 -1 -134 13 -180 63 -219 249 -373 517 -428 136 -28 334 -14 418 29 62
32 90 105 53 137 -28 24 -55 26 -129 12 -91 -17 -153 -17 -257 1 -189 33 -311
133 -352 290 -54 208 43 437 239 566 78 51 147 76 261 93 113 17 145 34 145
77 0 78 -44 99 -202 98 -64 0 -137 -7 -168 -15z"/>
<path d="M3344 5871 c-57 -34 -68 -107 -24 -151 18 -18 34 -20 198 -20 97 0
184 -4 192 -10 22 -14 32 -285 27 -702 -4 -261 -2 -361 6 -372 28 -36 143 -49
196 -22 l28 15 6 333 c3 183 2 425 -2 538 -4 113 -6 207 -4 210 3 3 85 7 183
10 160 4 181 7 206 26 67 50 79 99 34 144 -19 19 -35 20 -517 20 -470 0 -500
-1 -529 -19z"/>
</g>
</svg>
